<svg width="35" height="39" viewBox="0 0 35 39" fill="none" xmlns="http://www.w3.org/2000/svg">
<path d="M7.06372 11.5971C4.79344 10.2571 4.58488 10.1195 4.71762 10.0491C4.79775 10.0066 7.74965 8.3436 11.2774 6.35346C14.8051 4.36332 17.7221 2.73368 17.7595 2.73203C17.7969 2.73003 18.9345 3.38128 20.2874 4.17847C22.156 5.27946 22.728 5.64581 22.6668 5.70238C22.5774 5.78498 9.81259 12.9755 9.65474 13.0321C9.59752 13.0526 8.50067 12.4452 7.06372 11.5971Z" fill="#999999"/>
<path d="M12.1105 14.7981L25.6525 7.16843L31.0694 10.3536L17.5332 17.9867L12.1105 14.7981Z" stroke="black" stroke-width="0.264583"/>
<path d="M19.0281 20.1629L32.4011 12.442V27.982L19.0222 35.7063L19.0281 20.1629Z" stroke="black" stroke-width="0.264583"/>
<path d="M3.12329 12.3257V27.8533L16.5728 35.6184V20.114L3.12329 12.3257Z" stroke="black" stroke-width="0.264583"/>
<path d="M4.23328 10.127L17.7753 2.49741L23.1335 5.65704L9.59142 13.2867L4.23328 10.127Z" stroke="black" stroke-width="0.264583"/>
<path d="M17.8549 0.297333L0.924194 10.0182V29.1101L17.592 38.6801L34.5122 28.9651V9.81735L17.8549 0.297333Z" stroke="black" stroke-width="0.302656"/>
<path d="M14.9965 16.2952C13.0829 15.1693 12.5192 14.8088 12.5822 14.7513C12.6477 14.6915 24.9563 7.74589 25.5145 7.45377C25.6506 7.38257 25.9 7.51346 28.1736 8.84996C30.0657 9.96218 30.663 10.343 30.6031 10.3988C30.5087 10.4868 17.5929 17.7666 17.5337 17.7652C17.5113 17.7646 16.3695 17.1031 14.9965 16.2952Z" fill="#999999"/>
<path d="M19.196 27.8377L19.2128 20.2562L25.7119 16.5044L32.211 12.7525L32.1942 20.3325L32.1774 27.9125L26.7534 31.0443C23.7703 32.7667 20.8457 34.4558 20.2543 34.7977L19.1792 35.4193L19.196 27.8377Z" fill="#0000FF"/>
<path d="M9.85319 31.5383L3.33783 27.7781L3.321 20.2183C3.30756 14.1783 3.32085 12.6651 3.38714 12.6911C3.51378 12.7407 16.2953 20.1473 16.3523 20.2041C16.3797 20.2314 16.3946 23.6389 16.3854 27.7762L16.3686 35.2985L9.85319 31.5383Z" fill="#000080"/>
</svg>
