<svg width="35" height="40" viewBox="0 0 35 40" fill="none" xmlns="http://www.w3.org/2000/svg">
<path d="M18.7735 28.5577V20.9858L25.2601 17.2413C28.8277 15.1819 31.7596 13.4968 31.7755 13.4968C31.7913 13.4968 31.8038 16.8976 31.8033 21.054L31.8023 28.6111L25.6351 32.1691C22.2432 34.1259 19.3117 35.8176 19.1207 35.9283L18.7734 36.1296L18.7735 28.5577Z" fill="#0000FF"/>
<path d="M9.40977 32.2705L2.84998 28.477V20.9053C2.84998 16.7408 2.86767 13.3405 2.88927 13.3491C2.91087 13.3581 5.86809 15.0673 9.46078 17.1483L15.9929 20.9319V28.5023C15.9929 32.6659 15.9879 36.0706 15.9812 36.0682C15.9752 36.0662 13.0176 34.3568 9.40974 32.2705H9.40977Z" fill="#000080"/>
<path d="M18.602 20.8851L31.975 13.1641V28.7042L18.5961 36.4285L18.602 20.8851Z" stroke="black" stroke-width="0.264583"/>
<path d="M2.69714 13.0479V28.5755L16.1467 36.3406V20.8361L2.69714 13.0479Z" stroke="black" stroke-width="0.264583"/>
<path d="M10.8361 14.8458C7.28899 12.7579 4.38684 11.019 4.38684 10.9817C4.38684 10.9147 17.2886 3.56361 17.4185 3.55655C17.5209 3.55055 30.4139 11.1416 30.3969 11.1975C30.3855 11.2352 24.654 14.4901 17.616 18.4557L17.2853 18.6421L10.8361 14.8458Z" fill="#999999"/>
<path d="M17.3925 1.14233L0.461792 10.8632V29.9551L17.1296 39.5251L34.0498 29.8101V10.6624L17.3925 1.14233Z" stroke="black" stroke-width="0.302656"/>
<path d="M30.8182 11.1975L17.4351 3.32349L3.92224 10.9778L17.2854 18.8401L30.8182 11.1975Z" stroke="black" stroke-width="0.264583"/>
</svg>
