<svg width="36" height="41" viewBox="0 0 36 41" fill="none" xmlns="http://www.w3.org/2000/svg">
<path d="M7.60193 12.4291C5.33165 11.0891 5.12309 10.9515 5.25583 10.8811C5.33596 10.8386 8.28786 9.1756 11.8156 7.18546C15.3433 5.19532 18.2603 3.56568 18.2977 3.56403C18.3351 3.56203 19.4727 4.21328 20.8256 5.01047C22.6942 6.11146 23.2662 6.47781 23.205 6.53438C23.1156 6.61698 10.3508 13.8075 10.193 13.8641C10.1357 13.8846 9.03888 13.2772 7.60193 12.4291V12.4291Z" fill="#999999"/>
<path d="M19.5663 20.9949L32.9394 13.274V28.814L19.5604 36.5383L19.5663 20.9949Z" stroke="black" stroke-width="0.264583"/>
<path d="M3.6615 13.1577V28.6853L17.111 36.4504V20.946L3.6615 13.1577Z" stroke="black" stroke-width="0.264583"/>
<path d="M18.3931 1.12933L1.4624 10.8502V29.9421L18.1302 39.5121L35.0504 29.7971V10.6494L18.3931 1.12933Z" stroke="white"/>
<path d="M15.5347 17.1272C13.6211 16.0013 13.0574 15.6408 13.1204 15.5833C13.1859 15.5235 25.4945 8.57789 26.0527 8.28577C26.1888 8.21457 26.4382 8.34546 28.7118 9.68196C30.6039 10.7942 31.2012 11.175 31.1413 11.2308C31.0469 11.3188 18.1311 18.5986 18.0719 18.5972C18.0495 18.5966 16.9078 17.9351 15.5347 17.1272Z" fill="#999999"/>
<path d="M19.9842 28.6703L20.0007 21.2327L26.3751 17.5529L32.4983 14.0181L32.4824 21.164L32.4659 28.6L27.1666 31.6598C24.1835 33.3822 21.2588 35.0713 20.6674 35.4132L19.9684 35.8174L19.9842 28.6703Z" fill="#0000FF" stroke="white" stroke-width="0.5"/>
<path d="M4.11237 15.0141C4.11682 14.508 4.12325 14.1571 4.13184 13.9258C4.20695 13.9686 4.29403 14.0185 4.39212 14.0747C4.75354 14.2819 5.26319 14.5754 5.87161 14.9265C7.08839 15.6286 8.69959 16.5608 10.3087 17.4932C11.9178 18.4256 13.5246 19.3582 14.7327 20.0613C15.3368 20.4128 15.841 20.7068 16.1959 20.9147C16.3734 21.0187 16.5132 21.1009 16.6094 21.158C16.6238 21.1665 16.6372 21.1744 16.6495 21.1818C16.6498 21.1897 16.65 21.1981 16.6503 21.2069C16.6532 21.3087 16.656 21.4586 16.6585 21.6522C16.6636 22.0391 16.6678 22.596 16.6708 23.282C16.6768 24.6537 16.6782 26.5393 16.6736 28.6076L16.6578 35.6981L10.5164 32.1537L4.12571 28.4655L4.1092 21.0498C4.10248 18.0295 4.10245 16.1426 4.11237 15.0141Z" fill="#000080" stroke="white" stroke-width="0.5"/>
</svg>
