<svg width="36" height="40" viewBox="0 0 36 40" fill="none" xmlns="http://www.w3.org/2000/svg">
<path d="M19.3117 28.3897V20.8178L25.7983 17.0733C29.3659 15.0139 32.2979 13.3288 32.3137 13.3288C32.3295 13.3288 32.342 16.7296 32.3415 20.886L32.3405 28.4431L26.1733 32.0011C22.7814 33.9579 19.8499 35.6496 19.6589 35.7603L19.3116 35.9616L19.3117 28.3897Z" fill="#0000FF"/>
<path d="M9.94798 32.1025L3.38818 28.309V20.7373C3.38818 16.5728 3.40588 13.1725 3.42748 13.1811C3.44908 13.1901 6.4063 14.8993 9.99899 16.9803L16.5311 20.7639V28.3343C16.5311 32.498 16.5261 35.9026 16.5194 35.9002C16.5134 35.8982 13.5558 34.1888 9.94794 32.1025H9.94798Z" fill="#000080"/>
<path d="M19.3844 35.8274L19.3901 20.8614L32.2632 13.4291V28.3918L19.3844 35.8274Z" stroke="white" stroke-width="0.5"/>
<path d="M16.4349 35.7396L3.48535 28.2632V13.3136L16.4349 20.8123V35.7396Z" stroke="white" stroke-width="0.5"/>
<path d="M5.56465 10.9265C5.50058 10.8872 5.44231 10.8513 5.39007 10.8189C5.45371 10.7811 5.52597 10.7384 5.60632 10.6912C5.95846 10.4843 6.46224 10.1921 7.06786 9.8428C8.27892 9.1444 9.89529 8.21924 11.5159 7.29585C13.1365 6.37246 14.761 5.45105 15.9883 4.76014C16.6021 4.41463 17.116 4.12702 17.4804 3.9257C17.6627 3.82495 17.8067 3.74629 17.9067 3.69292C17.9242 3.68355 17.9402 3.67507 17.9547 3.66745C17.968 3.67472 17.9827 3.68276 17.9986 3.69158C18.0971 3.74596 18.2395 3.82651 18.4204 3.9299C18.7819 4.13652 19.2932 4.43238 19.9044 4.78813C21.1268 5.49954 22.7471 6.44937 24.3638 7.40126C25.9806 8.35314 27.5934 9.30684 28.8009 10.026C29.4047 10.3856 29.9067 10.6863 30.2569 10.8987C30.3323 10.9443 30.4004 10.9858 30.4609 11.0229C30.2956 11.1191 30.0732 11.2474 29.7986 11.405C29.1502 11.7771 28.2131 12.3112 27.0562 12.9683C24.7424 14.2822 21.5503 16.0872 18.0315 18.0699C18.0315 18.0699 18.0315 18.0699 18.0315 18.0699L17.8262 18.1856L11.5011 14.4624C9.72793 13.4186 8.11621 12.4623 6.948 11.7623C6.36378 11.4123 5.89104 11.1267 5.56465 10.9265Z" fill="#999999" stroke="white" stroke-width="0.5"/>
<path d="M17.9307 0.974335L1 10.6952V29.7871L17.6678 39.3571L34.588 29.6421V10.4944L17.9307 0.974335Z" stroke="white"/>
<path d="M31.3564 11.0295L17.9733 3.15549L4.46045 10.8098L17.8236 18.6721L31.3564 11.0295Z" stroke="black" stroke-width="0.264583"/>
</svg>
